<?xml version="1.0" encoding="UTF-8" ?>
<!DOCTYPE svg PUBLIC "-//W3C//DTD SVG 1.1//EN" "http://www.w3.org/Graphics/SVG/1.1/DTD/svg11.dtd">
<svg width="380pt" height="351pt" viewBox="0 0 380 351" version="1.1" xmlns="http://www.w3.org/2000/svg">
<path fill="#ffffff" d=" M 0.00 0.00 L 380.00 0.00 L 380.00 351.00 L 0.00 351.00 L 0.00 0.00 Z" />
<path fill="#000001" d=" M 184.43 13.36 C 189.71 13.64 194.99 12.94 200.25 13.55 C 203.81 14.50 207.51 14.09 211.14 14.42 C 215.17 14.52 219.05 16.05 223.12 15.71 C 224.12 16.07 225.12 16.41 226.14 16.75 C 227.38 17.29 228.63 17.82 229.89 18.34 C 231.08 18.46 232.26 18.58 233.45 18.70 L 233.31 19.22 C 234.55 19.49 235.79 19.78 237.02 20.12 C 242.12 20.71 246.46 23.79 251.50 24.71 L 251.48 25.13 C 253.81 25.87 256.02 26.91 258.26 27.87 C 259.48 28.55 260.71 29.21 261.95 29.87 C 265.28 31.62 268.65 33.29 271.93 35.13 C 274.52 36.82 276.99 38.67 279.64 40.26 C 286.00 44.90 292.41 49.56 297.81 55.33 C 301.81 58.72 304.81 63.26 309.36 65.98 C 310.35 61.34 310.71 55.56 315.80 53.48 C 316.86 53.96 317.93 54.43 319.02 54.87 C 319.41 55.15 320.20 55.72 320.60 56.01 C 321.25 57.04 321.94 58.06 322.67 59.04 C 324.06 63.53 324.81 68.24 326.88 72.50 C 331.51 80.05 332.19 89.20 333.35 97.76 C 331.69 100.04 332.71 102.44 334.20 104.49 C 336.07 102.91 337.82 101.18 339.97 99.96 C 339.49 99.06 339.03 98.17 338.58 97.26 C 339.74 95.58 339.96 93.53 340.55 91.63 C 342.01 86.25 344.93 81.44 347.78 76.71 C 349.04 74.28 351.79 73.35 353.78 71.66 C 355.99 71.45 358.21 71.39 360.42 71.65 C 361.53 72.88 362.67 74.08 363.85 75.25 C 364.37 77.79 364.32 80.37 363.66 82.88 C 361.45 87.12 359.63 91.69 359.14 96.47 L 358.88 96.37 C 358.49 101.29 356.43 105.97 353.61 109.99 C 353.83 110.17 354.28 110.51 354.50 110.69 C 352.57 114.09 351.52 117.84 351.10 121.71 C 349.51 125.79 347.67 129.76 345.53 133.58 C 344.94 136.74 346.24 139.93 346.95 143.00 C 347.65 148.01 348.48 153.01 349.32 158.00 C 351.35 176.99 350.64 196.42 345.97 214.97 C 345.66 217.70 344.86 220.33 344.05 222.94 C 342.69 227.38 342.01 232.06 339.93 236.25 C 338.50 239.11 337.48 242.14 336.38 245.14 C 335.48 246.72 334.73 248.37 333.92 250.00 C 330.55 256.87 326.94 263.66 322.55 269.95 C 322.42 270.48 322.18 271.54 322.06 272.07 C 321.57 272.31 320.60 272.79 320.12 273.03 C 319.12 274.98 317.90 276.81 316.57 278.54 C 307.52 289.04 298.35 299.58 287.42 308.20 C 284.02 310.76 280.89 313.77 276.98 315.57 C 273.43 318.02 269.73 320.20 265.83 322.03 C 259.93 325.44 253.76 328.47 247.29 330.62 C 246.19 331.13 245.06 331.53 243.93 331.94 C 237.98 333.78 232.00 335.83 225.81 336.71 C 222.80 337.88 219.56 338.31 216.36 338.64 C 216.36 338.77 216.37 339.03 216.37 339.16 C 212.71 339.31 209.06 339.56 205.41 339.65 L 205.50 340.22 C 203.46 340.19 201.42 340.21 199.38 340.25 C 199.24 341.71 199.14 343.20 198.92 344.66 C 198.85 343.57 198.69 341.38 198.62 340.29 C 193.09 340.13 187.48 340.79 182.01 339.85 C 181.15 340.12 180.28 340.39 179.40 340.61 C 177.67 338.93 175.24 339.53 173.10 339.41 C 168.99 337.56 164.12 338.98 159.98 336.95 C 158.65 336.60 157.34 336.22 156.04 335.81 C 154.30 335.59 152.53 335.44 150.94 334.66 C 148.70 334.04 146.44 333.49 144.27 332.66 C 141.08 331.72 137.95 330.60 134.86 329.37 C 128.22 326.97 121.67 323.98 115.90 319.91 C 114.61 319.32 113.32 318.71 112.04 318.11 C 109.67 316.46 107.36 314.73 104.90 313.22 C 97.65 308.24 91.07 302.39 84.76 296.28 C 80.02 291.06 74.72 286.27 70.84 280.34 C 69.41 279.03 68.22 277.51 67.14 275.92 C 65.46 273.46 63.80 270.98 62.35 268.37 L 61.62 268.55 C 61.13 267.30 60.65 266.05 60.19 264.80 C 54.47 256.92 50.31 248.09 46.79 239.08 C 44.75 233.33 42.09 227.78 41.07 221.72 C 39.62 219.01 39.53 215.90 38.89 212.96 C 36.67 203.52 35.24 193.86 35.23 184.14 C 33.21 175.52 35.46 166.69 35.61 157.99 C 35.87 151.53 38.03 145.28 38.71 138.93 C 34.71 135.30 33.11 130.06 30.91 125.29 C 28.67 120.21 28.28 114.37 25.28 109.64 C 24.77 106.23 23.75 102.95 22.33 99.82 C 21.64 95.73 19.04 92.38 18.04 88.42 C 17.83 88.01 17.40 87.20 17.19 86.80 C 16.64 83.30 16.39 78.96 19.43 76.47 C 21.31 73.76 24.79 74.44 27.61 74.66 C 30.55 77.39 33.54 80.17 35.33 83.82 C 37.22 89.13 39.72 94.14 42.04 99.27 C 41.21 99.12 39.53 98.82 38.70 98.67 C 40.26 102.72 44.27 104.93 47.24 107.85 C 47.85 107.79 49.07 107.66 49.68 107.60 C 45.54 100.63 47.16 92.24 49.97 85.13 C 51.44 80.69 52.94 76.25 55.29 72.18 C 55.41 71.09 55.54 70.01 55.68 68.93 C 56.83 65.74 57.80 62.49 58.91 59.28 C 60.36 58.05 61.94 55.59 64.13 56.79 C 69.25 59.21 71.15 65.64 70.64 70.93 C 75.05 68.87 77.55 64.28 81.05 61.05 C 85.77 56.81 89.69 51.64 95.07 48.17 C 100.65 43.95 106.03 39.46 112.06 35.89 C 112.57 35.75 113.60 35.45 114.11 35.31 C 118.52 31.68 123.99 29.76 128.97 27.07 C 133.09 24.92 137.46 23.41 141.85 21.93 C 145.02 20.88 148.20 19.83 151.49 19.18 L 151.38 18.69 C 152.63 18.56 153.88 18.42 155.13 18.26 C 159.78 15.92 165.15 16.64 170.00 14.93 C 174.76 14.23 179.61 14.33 184.42 14.18 L 184.43 13.36 Z" />
<path fill="#ffffff" d=" M 173.82 21.67 C 182.57 21.16 191.32 20.20 200.10 20.81 C 204.42 21.37 208.78 21.50 213.14 21.71 C 214.59 22.46 216.21 22.66 217.82 22.83 C 219.50 23.29 221.24 23.49 222.98 23.65 C 224.48 24.00 226.00 24.32 227.53 24.60 C 227.59 24.16 227.72 23.29 227.79 22.86 C 228.21 26.61 232.48 25.92 235.10 27.15 C 238.40 27.86 241.41 29.63 244.81 29.87 C 245.11 30.17 245.69 30.77 245.98 31.08 C 247.72 31.58 249.43 32.18 251.14 32.75 C 252.46 33.49 253.81 34.18 255.15 34.87 C 258.43 36.46 261.81 37.88 264.83 39.96 C 266.60 41.06 268.33 42.22 270.09 43.35 C 270.49 43.44 271.28 43.63 271.68 43.72 C 276.04 47.16 280.77 50.14 285.04 53.71 C 287.55 55.32 289.34 57.87 292.07 59.14 C 292.40 59.82 292.74 60.49 293.09 61.17 C 296.64 63.43 299.08 66.94 301.97 69.92 C 305.82 73.79 309.04 78.21 312.28 82.58 C 314.18 88.21 313.28 94.43 315.75 99.92 C 313.54 102.14 311.46 104.56 310.20 107.46 C 307.96 112.20 305.16 116.70 303.61 121.73 C 303.14 122.71 302.16 123.34 301.47 124.15 C 301.43 122.47 301.52 120.78 301.83 119.13 C 303.16 116.34 304.41 113.51 306.11 110.92 C 307.55 107.04 309.92 103.66 312.29 100.32 C 313.48 98.77 312.21 96.88 312.05 95.20 C 312.15 94.63 312.36 93.47 312.46 92.89 C 309.49 87.02 307.61 80.51 303.42 75.32 C 301.70 73.82 299.95 72.36 298.10 71.02 C 295.25 70.99 292.56 71.67 290.38 73.56 C 289.72 76.08 289.12 78.69 290.11 81.22 C 286.86 82.91 284.34 85.60 282.70 88.86 C 284.78 89.36 286.17 87.86 287.48 86.53 C 288.59 86.13 289.69 85.70 290.76 85.18 L 290.71 85.50 C 295.65 82.37 303.38 82.49 306.61 88.02 C 306.63 89.42 306.66 90.81 306.71 92.21 C 307.84 96.02 306.65 99.82 304.65 103.09 C 302.00 112.57 296.42 120.84 291.24 129.10 C 289.57 133.28 286.82 137.28 287.09 141.99 C 287.45 141.46 288.16 140.41 288.52 139.89 C 289.43 139.23 290.33 138.56 291.22 137.87 C 292.70 137.70 294.17 137.56 295.67 137.43 L 295.42 135.93 C 296.09 136.16 297.41 136.63 298.07 136.86 C 299.12 132.56 303.40 130.71 306.50 128.08 L 306.37 127.73 C 308.33 126.33 310.35 124.99 312.22 123.47 C 312.85 123.45 314.09 123.39 314.71 123.37 L 314.37 122.13 C 314.92 122.19 316.03 122.32 316.59 122.38 C 318.10 120.96 319.96 120.24 322.05 120.34 L 321.20 119.29 C 321.86 119.42 323.19 119.67 323.86 119.79 C 325.04 117.29 326.46 114.91 327.72 112.46 C 328.35 112.44 329.60 112.41 330.22 112.39 C 328.66 116.10 326.31 119.79 322.11 120.74 L 322.68 121.62 C 321.24 121.54 319.81 121.47 318.38 121.39 C 317.29 122.39 316.20 123.38 315.12 124.38 C 314.55 124.69 313.41 125.29 312.84 125.59 C 312.47 125.47 311.72 125.24 311.35 125.12 L 311.61 126.13 C 308.83 128.01 306.38 130.39 303.39 131.95 C 303.33 132.13 303.22 132.48 303.16 132.66 L 300.91 133.02 C 302.00 134.02 303.19 134.92 304.45 135.73 C 303.74 136.34 303.03 136.96 302.35 137.59 C 300.61 137.53 298.87 137.48 297.14 137.41 L 297.59 138.28 C 291.68 138.46 286.42 142.78 284.02 148.02 C 281.34 152.06 278.31 155.87 275.15 159.54 C 274.51 160.58 273.20 160.25 272.17 160.44 C 275.00 156.24 277.95 152.11 281.19 148.21 C 285.27 143.91 284.48 137.42 287.44 132.51 C 288.51 128.40 291.42 125.26 293.58 121.72 C 296.55 115.56 300.78 109.98 302.17 103.16 C 304.12 99.18 304.86 94.80 305.70 90.49 L 304.84 90.49 C 304.31 89.26 303.76 88.05 303.21 86.84 C 301.69 86.22 300.23 85.45 299.15 84.19 L 297.28 84.50 L 298.06 85.41 C 296.30 85.68 294.54 85.99 292.80 86.34 C 293.49 87.28 294.34 88.12 294.91 89.14 C 294.45 89.59 293.54 90.47 293.09 90.92 C 290.52 93.28 288.21 95.89 285.84 98.44 C 287.16 99.96 289.16 99.27 290.91 99.49 C 293.03 99.91 294.48 101.58 296.14 102.82 C 296.80 104.34 297.66 105.75 299.57 105.70 C 298.86 106.73 298.16 107.76 297.46 108.78 C 295.93 106.41 294.55 103.31 291.62 102.43 C 288.87 101.96 286.05 101.92 283.33 101.24 C 285.06 96.96 287.19 92.05 291.73 90.15 C 292.30 89.51 292.67 88.80 292.84 88.00 C 291.72 87.65 290.58 87.50 289.40 87.55 C 288.37 88.47 287.25 89.25 286.15 90.06 C 285.16 90.74 284.15 91.37 283.13 91.97 C 279.03 94.82 274.46 97.49 272.00 102.03 C 269.90 105.28 270.23 109.26 269.46 112.88 C 268.04 116.26 267.79 120.00 266.24 123.34 C 265.78 123.44 264.86 123.65 264.40 123.75 C 264.22 124.07 263.88 124.70 263.70 125.01 C 264.07 122.47 265.25 120.19 266.95 118.28 C 263.42 117.47 261.87 121.36 259.49 123.19 C 255.97 125.82 253.84 129.69 250.88 132.84 C 249.91 134.34 248.94 135.84 247.87 137.26 C 247.28 140.51 247.38 143.95 245.76 146.92 C 245.60 147.54 245.29 148.78 245.14 149.40 C 244.72 149.39 243.87 149.37 243.45 149.35 C 243.67 148.10 243.90 146.85 244.14 145.61 C 245.42 144.28 245.29 142.55 245.06 140.89 C 243.54 142.50 242.14 144.24 241.39 146.35 C 241.06 146.45 240.40 146.64 240.07 146.74 C 239.07 148.83 238.08 150.93 236.75 152.83 C 235.40 157.23 234.37 161.72 233.02 166.11 C 232.62 167.77 232.30 169.45 231.93 171.12 C 231.01 177.90 231.61 184.79 231.04 191.61 C 230.38 191.51 229.05 191.31 228.39 191.20 C 228.72 187.91 228.65 184.60 228.57 181.29 L 227.90 181.20 C 226.88 187.98 222.80 193.70 220.08 199.86 C 218.69 204.28 220.41 208.98 222.32 212.98 C 225.05 218.43 222.73 224.40 221.94 229.99 C 221.22 232.28 221.42 234.69 221.94 237.00 C 222.76 239.64 223.71 242.30 223.72 245.11 C 224.15 245.97 224.58 246.84 225.01 247.71 C 227.13 253.00 227.43 258.73 229.14 264.11 C 229.25 267.52 230.10 270.80 230.86 274.10 C 231.65 279.09 233.33 283.88 234.20 288.86 C 235.06 293.94 236.18 298.99 237.31 304.03 C 238.12 309.02 239.32 313.94 240.03 318.94 C 240.47 320.81 240.95 322.66 241.50 324.51 C 239.46 325.66 237.26 326.46 235.10 327.35 C 232.68 327.88 230.27 328.43 227.87 328.98 C 225.14 329.79 222.34 330.35 219.52 330.74 L 219.59 331.47 C 216.84 331.50 214.10 331.66 211.36 331.79 L 211.43 332.51 C 207.89 332.48 204.34 332.65 200.86 333.35 C 193.38 333.61 185.91 333.52 178.43 333.26 L 178.52 332.67 C 176.05 332.61 173.59 332.48 171.12 332.43 L 171.60 331.71 C 169.19 331.58 166.78 331.44 164.37 331.37 L 164.70 330.75 C 162.08 330.33 159.52 329.65 156.90 329.24 C 154.79 328.45 152.64 327.81 150.51 327.12 C 150.12 321.96 152.12 316.96 151.65 311.78 C 152.29 306.87 152.51 301.93 152.73 297.00 C 154.01 288.39 153.55 279.50 155.28 271.00 C 155.12 264.35 156.03 257.74 156.84 251.15 C 157.34 249.79 157.84 248.45 158.39 247.12 C 158.92 244.71 159.43 242.29 159.82 239.86 C 161.12 236.37 161.90 232.71 161.90 228.97 C 162.31 224.17 160.20 219.62 160.68 214.91 C 162.03 212.13 163.46 209.21 163.54 206.06 C 163.61 202.05 164.27 197.66 161.72 194.20 C 159.81 191.44 159.46 187.59 156.50 185.66 C 155.75 190.96 155.34 196.31 154.32 201.57 C 153.78 203.05 152.72 204.27 151.85 205.57 C 152.74 211.15 151.44 216.80 150.31 222.26 C 148.40 226.81 147.82 231.77 146.29 236.45 C 145.80 236.52 144.83 236.67 144.35 236.74 C 145.05 232.80 145.77 228.86 146.96 225.03 C 148.86 218.56 149.83 211.61 149.03 204.89 C 150.08 203.60 151.45 202.49 152.07 200.91 C 152.38 198.66 152.30 196.32 153.15 194.17 C 153.37 192.11 153.59 190.04 153.86 187.98 C 155.07 183.10 154.26 178.04 154.18 173.09 C 153.29 170.40 152.73 167.61 152.00 164.88 C 149.74 159.24 148.69 152.99 145.04 147.98 C 142.81 145.62 140.62 143.21 138.27 140.97 C 137.98 141.15 137.40 141.53 137.11 141.71 C 137.96 143.61 138.96 145.47 139.33 147.55 C 138.70 147.51 137.43 147.42 136.80 147.37 C 136.34 145.55 135.83 143.74 135.28 141.94 C 134.33 139.84 133.25 137.77 131.71 136.04 C 128.42 128.97 121.94 124.42 116.09 119.64 C 116.26 122.05 118.11 123.86 118.63 126.18 C 118.05 126.00 116.88 125.64 116.30 125.46 C 114.14 119.80 111.95 114.06 111.18 108.02 C 109.50 101.62 104.58 96.55 98.37 94.37 C 98.26 93.37 98.80 92.52 99.28 91.69 C 97.25 88.52 94.12 86.17 90.33 85.66 C 89.53 81.30 85.66 76.90 80.86 78.36 C 76.76 82.02 72.51 85.89 70.46 91.14 C 70.67 95.15 69.65 99.02 68.97 102.94 C 71.38 109.21 76.98 114.00 77.82 120.91 L 78.62 120.06 C 78.85 121.44 79.11 122.82 79.31 124.21 C 79.09 123.71 78.65 122.71 78.43 122.21 L 77.80 122.76 C 73.82 116.69 70.84 110.02 66.90 103.91 C 66.88 98.56 68.92 93.41 68.26 88.04 C 73.93 80.32 79.48 72.33 86.65 65.89 C 93.49 58.42 101.51 51.96 109.96 46.47 C 111.66 45.21 113.34 43.94 114.91 42.53 C 115.35 42.43 116.22 42.23 116.66 42.13 C 118.11 40.85 119.64 39.48 121.71 39.48 L 121.78 38.94 C 125.85 37.28 129.45 34.66 133.54 33.04 L 133.50 32.90 C 135.90 32.19 138.18 31.16 140.57 30.40 L 140.67 29.81 C 142.93 29.62 145.07 28.84 147.12 27.90 C 147.60 27.75 148.56 27.45 149.04 27.30 C 150.34 26.86 151.67 26.51 153.00 26.19 C 155.49 25.50 158.09 24.94 160.21 23.37 C 160.35 23.65 160.62 24.22 160.76 24.50 C 164.97 22.84 169.53 22.86 173.82 21.67 Z" />
<path fill="#ffffff" d=" M 74.64 89.82 C 77.01 85.70 82.77 85.50 86.77 86.96 C 90.84 88.04 94.80 89.68 98.23 92.15 C 96.99 92.67 95.70 93.03 94.39 93.33 L 94.45 92.46 C 92.61 91.81 90.88 90.89 89.43 89.58 C 85.13 88.76 79.51 86.90 76.58 91.39 C 76.00 95.41 76.11 99.68 76.83 103.69 C 77.32 103.53 78.31 103.20 78.80 103.04 C 79.00 102.50 79.40 101.42 79.61 100.88 C 80.72 102.46 81.67 104.15 81.86 106.12 C 82.79 107.17 83.56 108.35 83.88 109.75 C 85.57 110.84 86.26 109.01 86.22 107.71 C 86.79 106.79 87.36 105.87 87.94 104.96 C 90.04 103.48 92.10 101.57 94.88 102.84 C 95.58 98.90 91.51 96.86 89.64 93.95 C 88.68 93.35 87.74 92.73 86.80 92.11 C 87.32 91.92 88.36 91.55 88.88 91.37 C 92.36 94.04 95.58 96.95 97.50 100.99 C 97.46 101.78 97.41 102.58 97.36 103.37 C 95.97 103.31 94.59 103.24 93.20 103.17 L 93.36 104.23 C 92.57 104.32 90.98 104.48 90.19 104.57 L 90.50 105.23 C 88.36 107.56 86.74 110.28 85.02 112.92 C 82.85 110.85 81.44 108.20 80.31 105.46 C 80.01 105.35 79.40 105.13 79.10 105.02 C 78.93 105.41 78.58 106.18 78.40 106.57 C 80.87 112.20 84.32 117.31 86.97 122.85 C 88.30 125.02 89.68 127.19 90.80 129.49 C 94.11 133.01 97.58 137.11 98.04 142.10 C 99.43 148.44 104.42 152.95 107.42 158.51 C 109.08 161.65 111.49 164.36 112.81 167.66 C 110.03 167.71 109.14 165.00 107.74 163.22 C 103.93 157.07 100.17 150.89 95.94 145.02 C 90.91 139.48 82.71 136.81 75.52 139.41 C 75.48 138.56 75.45 137.72 75.42 136.88 C 76.61 136.56 77.80 136.23 78.99 135.90 C 72.12 131.09 66.21 124.53 57.91 122.12 C 54.09 121.87 53.69 117.51 53.19 114.57 C 53.73 114.57 54.82 114.55 55.36 114.54 C 56.08 116.44 56.55 118.59 58.07 120.04 C 66.84 122.38 74.29 128.42 80.05 135.27 C 82.27 135.95 84.58 136.23 86.88 136.56 C 88.86 137.67 90.91 138.65 92.95 139.65 C 93.12 140.10 93.44 141.00 93.61 141.45 C 94.29 141.71 95.66 142.25 96.35 142.51 C 95.47 138.09 92.80 134.32 90.22 130.73 C 87.86 128.63 86.33 125.87 84.81 123.14 C 80.81 115.56 75.86 108.39 73.85 99.92 C 73.74 96.58 72.71 92.83 74.64 89.82 Z" />
<path fill="#ffffff" d=" M 317.70 160.77 C 323.60 153.19 331.71 147.83 338.01 140.62 C 338.37 140.88 339.10 141.41 339.46 141.67 C 340.38 146.13 341.06 150.64 342.14 155.06 C 342.55 160.46 343.17 165.88 343.20 171.29 C 343.60 176.86 343.89 182.49 343.17 188.04 C 342.06 206.64 337.68 225.11 329.87 242.03 C 329.38 243.41 328.88 244.80 328.35 246.17 C 326.67 248.74 325.24 251.48 324.09 254.33 C 323.38 255.48 322.63 256.60 321.86 257.71 C 319.22 262.65 315.77 267.12 313.01 272.00 C 307.85 276.63 304.73 283.48 298.73 287.13 C 298.54 285.68 298.37 284.23 298.22 282.79 C 294.59 271.66 287.75 261.93 283.53 251.03 C 282.60 249.31 281.73 247.57 280.69 245.92 C 280.38 244.96 280.07 244.01 279.76 243.07 C 279.19 240.72 278.48 238.40 277.82 236.07 C 276.94 232.51 275.94 228.99 274.79 225.51 C 274.08 221.45 273.97 217.31 273.65 213.21 C 274.19 213.22 275.27 213.25 275.80 213.26 C 275.76 214.71 275.71 216.16 275.65 217.62 L 276.23 217.31 C 276.46 220.93 276.85 224.54 276.79 228.17 C 278.01 227.72 278.90 226.95 279.49 225.87 C 283.80 217.23 294.79 213.77 297.70 204.24 C 298.16 203.15 298.58 202.05 299.02 200.96 C 300.04 196.23 300.00 191.09 302.63 186.86 C 304.26 184.24 305.76 181.54 307.11 178.77 C 308.14 177.29 309.08 175.75 309.92 174.16 C 311.39 171.67 311.72 168.76 312.50 166.02 C 314.87 165.01 316.08 162.62 317.70 160.77 Z" />
<path fill="#ffffff" d=" M 44.93 144.97 C 46.84 145.99 48.49 147.39 50.15 148.77 C 51.04 149.88 51.95 150.97 52.88 152.06 C 53.92 153.07 54.91 154.13 55.86 155.23 C 58.38 157.43 60.61 159.96 63.32 161.93 C 65.69 163.46 68.20 164.77 70.40 166.55 C 70.49 168.38 70.57 170.20 70.57 172.03 C 72.68 175.65 74.99 179.15 77.07 182.79 C 77.97 184.92 79.08 186.97 79.92 189.14 C 80.29 189.96 80.66 190.80 81.02 191.64 C 81.87 196.49 84.58 200.73 85.83 205.48 C 88.99 214.13 96.66 219.97 102.23 227.01 C 104.01 229.24 102.79 233.78 106.67 233.93 C 106.38 231.22 105.84 228.54 105.49 225.84 C 107.15 222.92 109.00 219.93 108.71 216.42 C 109.16 216.45 110.06 216.51 110.52 216.54 C 110.79 221.06 107.91 224.91 107.69 229.36 C 107.02 232.94 107.80 236.79 106.17 240.16 C 105.20 242.79 103.89 245.26 102.75 247.81 C 99.64 254.22 97.53 261.08 93.74 267.16 C 90.36 273.34 88.52 280.18 85.61 286.57 C 82.68 283.80 79.86 280.92 77.18 277.91 C 74.71 273.78 71.04 270.49 68.96 266.13 C 68.19 264.58 67.08 263.24 65.97 261.93 C 63.49 257.63 61.62 253.00 58.83 248.88 C 57.79 246.66 56.74 244.44 55.81 242.17 C 54.88 240.06 53.94 237.95 53.15 235.78 C 52.65 234.86 52.14 233.95 51.62 233.05 C 51.55 232.57 51.40 231.61 51.33 231.13 C 48.68 224.10 46.96 216.81 45.03 209.58 C 44.77 207.35 44.48 205.13 44.05 202.93 C 40.44 183.80 40.94 163.99 44.93 144.97 Z" />
<path fill="#ffffff" d=" M 228.48 192.71 C 229.60 192.75 230.72 192.79 231.85 192.83 L 230.86 193.37 C 231.75 196.45 231.50 200.32 234.69 202.12 C 234.40 202.62 233.81 203.64 233.52 204.14 C 233.08 208.42 233.33 212.74 234.82 216.81 C 235.88 220.28 237.38 223.83 236.51 227.53 C 237.21 227.54 238.60 227.57 239.29 227.59 C 239.76 230.12 240.50 232.61 240.72 235.19 C 238.38 233.44 236.90 230.83 236.01 228.08 C 234.83 224.98 234.41 221.65 233.21 218.54 L 232.75 218.68 C 232.49 214.22 230.23 210.11 230.73 205.58 C 231.44 204.06 232.05 202.50 232.62 200.92 C 228.40 200.56 229.76 195.52 228.48 192.71 Z" />
</svg>
