<?xml version="1.0" encoding="UTF-8" standalone="no"?>
<svg width="47px" height="34px" viewBox="0 0 47 34" version="1.1" xmlns="http://www.w3.org/2000/svg" xmlns:xlink="http://www.w3.org/1999/xlink" xmlns:sketch="http://www.bohemiancoding.com/sketch/ns">
    <!-- Generator: Sketch 3.5.2 (25235) - http://www.bohemiancoding.com/sketch -->
    <title>Btn play Copy 2</title>
    <desc>Created with Sketch.</desc>
    <defs></defs>
    <g id="Welcome" stroke="none" stroke-width="1" fill="none" fill-rule="evenodd" sketch:type="MSPage">
        <g id="Tablet-Portrait" sketch:type="MSArtboardGroup" transform="translate(-494.000000, -677.000000)" stroke="#000000" stroke-width="3" fill="#F7A438">
            <g id="Nav-play-controller" sketch:type="MSLayerGroup" transform="translate(-4.000000, 569.000000)">
                <g id="Options-+--text" transform="translate(111.000000, 70.000000)" sketch:type="MSShapeGroup">
                    <g id="Btn-main-play" transform="translate(124.000000, 0.000000)">
                        <path d="M293.406432,63.3433351 L305.265529,69.7079229 C306.601651,70.4249982 307.680587,69.7760355 307.680587,68.2612078 L307.680587,41.738682 C307.680587,40.2212367 306.599329,39.5761407 305.265529,40.2919733 L293.406432,46.6565924 L293.406432,41.738682 C293.406432,40.2212367 292.325173,39.5761407 290.991374,40.2919733 L266.001221,53.7038548 C264.665099,54.4209335 264.667421,55.5802783 266.001221,56.2961074 L290.991374,69.7079229 C292.327495,70.4249982 293.406432,69.7760355 293.406432,68.2612078 L293.406432,63.3433351 Z" id="Btn-play-Copy-2" transform="translate(286.340293, 55.000000) scale(-1, 1) translate(-286.340293, -55.000000) "></path>
                    </g>
                </g>
            </g>
        </g>
    </g>
</svg>