<?xml version="1.0" encoding="UTF-8" standalone="no"?>
<svg width="294px" height="294px" viewBox="0 0 294 294" version="1.1" xmlns="http://www.w3.org/2000/svg" xmlns:xlink="http://www.w3.org/1999/xlink" xmlns:sketch="http://www.bohemiancoding.com/sketch/ns">
    <!-- Generator: Sketch 3.5.2 (25235) - http://www.bohemiancoding.com/sketch -->
    <title>Logo peace dove</title>
    <desc>Created with Sketch.</desc>
    <defs>
        <circle id="path-1" cx="146" cy="146" r="146"></circle>
    </defs>
    <g id="Welcome" stroke="none" stroke-width="1" fill="none" fill-rule="evenodd" sketch:type="MSPage">
        <g id="Logo-peace-dove" sketch:type="MSLayerGroup" transform="translate(1.000000, 1.000000)">
            <mask id="mask-2" sketch:name="Mask" fill="white">
                <use xlink:href="#path-1"></use>
            </mask>
            <use id="Mask" stroke="#000000" stroke-width="2" sketch:type="MSShapeGroup" xlink:href="#path-1"></use>
            <g id="Group" mask="url(#mask-2)" sketch:type="MSShapeGroup">
                <g transform="translate(-36.500000, -36.500000)">
                    <rect id="Rectangle-17" fill="#000000" x="0" y="0" width="365" height="365"></rect>
                    <rect id="Rectangle-18" fill="#C32F27" x="0" y="0" width="365" height="182.5"></rect>
                    <path d="M176.151305,56.9113381 C179.211495,54.7256277 182.49201,52.8733307 185.802747,51.1 C184.67967,53.326656 183.776919,55.6663996 183.161762,58.0841346 C183.145189,58.1319044 183.110092,58.226469 183.093519,58.2742388 C182.67529,60.1284856 182.327253,62.0061298 182.190768,63.9061966 C181.913899,67.4119124 182.17907,70.9634482 183.023327,74.3794738 C183.074021,74.6075988 183.163712,74.8318243 183.167611,75.0687233 C183.190034,75.1145433 183.233904,75.2052083 183.255352,75.2500534 C183.264126,75.3017228 183.281674,75.4031116 183.290448,75.4538061 C183.308971,75.5015759 183.345042,75.5961405 183.36259,75.6429354 C183.865635,77.4055422 184.564633,79.1038061 185.354297,80.7552751 C186.965795,84.2921875 189.074489,87.5892762 191.484425,90.6338675 C193.265555,92.8965946 195.239713,94.9994391 197.266516,97.0437901 C200.725437,100.511485 204.478776,103.66429 208.173621,106.873638 C206.5358,106.157091 204.928201,105.372302 203.293306,104.648932 C197.274315,101.929955 191.146137,99.426429 184.841503,97.4464209 C184.794708,97.4259482 184.701118,97.3869525 184.654323,97.3674546 C184.36478,97.3382078 184.096684,97.2104968 183.817865,97.1393296 C183.813965,97.1383547 183.808116,97.1364049 183.805191,97.13543 C183.624836,97.0818109 183.445456,97.0359909 183.271925,96.9735978 C183.22513,96.9540999 183.13154,96.9160791 183.084745,96.8975561 C183.035026,96.8897569 182.935587,96.8741587 182.885867,96.8663595 C182.841022,96.8449119 182.750357,96.8010417 182.705512,96.779594 L182.5895,96.7893429 C182.545629,96.7659455 182.456914,96.7191506 182.413044,96.6957532 C182.361375,96.688929 182.257061,96.6772302 182.205392,96.670406 C182.159572,96.6499332 182.068907,96.6089877 182.023087,96.588515 L181.911949,96.6002137 C181.867104,96.578766 181.777414,96.5339209 181.732568,96.5114984 C181.679924,96.5036993 181.575611,96.4871261 181.522966,96.4793269 C181.477146,96.4578793 181.385506,96.4159589 181.338712,96.3945112 C181.16713,96.396461 181.002373,96.3428419 180.842491,96.2931223 C180.794721,96.2755743 180.700157,96.2404781 180.652387,96.22293 C180.601692,96.214156 180.499329,96.1966079 180.447659,96.1878339 C180.401839,96.168336 180.310199,96.1273905 180.263404,96.1069177 C180.21271,96.1020433 180.109371,96.0922943 180.058677,96.086445 C180.011882,96.0669471 179.920242,96.0260016 179.874422,96.0065037 C179.822753,96.0016293 179.719414,95.9909054 179.667745,95.986031 C179.6229,95.9665331 179.53126,95.9255876 179.48544,95.9051149 C179.434745,95.9002404 179.333356,95.8895166 179.282662,95.8846421 C179.235867,95.8651442 179.142277,95.8271234 179.095482,95.8076255 C178.88978,95.8076255 178.690902,95.7462073 178.496898,95.6925881 C178.469601,95.6682158 178.416957,95.6194712 178.38966,95.5950988 L178.319467,95.6223958 C178.267798,95.6175214 178.164459,95.6087473 178.11279,95.6038729 C178.065995,95.5853499 177.972406,95.548304 177.925611,95.529781 C177.689686,95.5210069 177.459612,95.4537393 177.235386,95.392321 C177.188591,95.374773 177.094027,95.3396768 177.047232,95.3221287 C176.295589,95.2275641 175.557595,95.0062634 174.807902,94.8805021 C170.333143,93.9836004 165.776492,93.4873798 161.212042,93.4386351 C159.868639,87.8476229 159.645389,81.9027244 161.157448,76.3224359 C161.175971,76.275641 161.211067,76.1820513 161.228615,76.1342815 C161.237389,76.084562 161.253963,75.984148 161.262737,75.9344284 C161.284184,75.8886084 161.32708,75.7969685 161.349502,75.7511485 C161.715087,74.286859 162.314646,72.8800881 162.981473,71.5259615 C164.538378,68.4033787 166.601252,65.5459669 168.993639,63.0092949 C171.139379,60.7114717 173.592211,58.7275641 176.151305,56.9113381 M120.5317,75.0297276 C121.205352,75.7794204 121.828308,76.5729834 122.485386,77.3372997 C122.487336,77.3392495 122.492211,77.3450988 122.49416,77.3470486 C123.45443,78.4915732 124.422499,79.6312233 125.41299,80.7504006 C125.415915,80.7523504 125.419815,80.7572249 125.421764,80.7601496 C128.452707,84.1859241 131.715675,87.4479167 135.451465,90.1064503 C135.45439,90.1084001 135.460239,90.1122997 135.462189,90.1142495 C135.531407,90.1629941 135.670816,90.2604834 135.740034,90.3092281 C135.742958,90.310203 135.747833,90.3141026 135.750758,90.3160524 C137.857502,91.7803419 140.118279,93.0321047 142.509692,93.9699519 C143.826772,94.5080929 145.158477,95.0140625 146.515528,95.4430155 C146.564272,95.4595887 146.659812,95.4937099 146.707582,95.5102831 C146.873314,95.5375801 147.038071,95.5804754 147.197953,95.6399439 C147.245723,95.6565171 147.341262,95.6916132 147.388057,95.7081864 C147.439727,95.7179354 147.541115,95.7374332 147.59181,95.7462073 C147.638605,95.7657051 147.732195,95.803726 147.779964,95.8232238 C148.432168,95.9168136 149.068773,96.1166667 149.720002,96.2317041 C157.31052,97.7720353 165.168159,97.0379407 172.743079,98.6855101 C172.790848,98.7011084 172.885413,98.7332799 172.933183,98.7498531 C173.329964,98.7586271 173.718947,98.8902377 174.110854,98.9623798 C174.157649,98.9799279 174.251238,99.0140491 174.298033,99.0306223 C174.3731,99.0393964 174.525183,99.0559696 174.60025,99.0637687 C174.627547,99.0891159 174.681166,99.1388355 174.707488,99.1641827 L174.776706,99.1359108 C176.322886,99.4118056 177.851519,99.836859 179.376252,100.229741 C179.422072,100.247289 179.514686,100.284335 179.561481,100.301883 C179.611201,100.310657 179.71064,100.32723 179.76036,100.335029 C179.807154,100.353552 179.901719,100.390598 179.949489,100.409121 C180.118145,100.412046 180.284852,100.46469 180.446684,100.519284 C180.492504,100.539757 180.584144,100.579728 180.630939,100.6002 C180.681634,100.607025 180.784972,100.619698 180.836642,100.626522 C180.882462,100.646995 180.974102,100.686966 181.019922,100.707439 L181.133009,100.69379 C181.175904,100.718162 181.26267,100.766907 181.305565,100.791279 C181.930472,100.894618 182.531981,101.136392 183.146164,101.302123 C187.284585,102.557786 191.360613,104.024025 195.354751,105.683293 C195.399596,105.706691 195.490261,105.751536 195.536081,105.774933 C197.09201,106.360844 198.606994,107.065692 200.131727,107.733494 C205.113431,109.971848 209.985947,112.447102 214.778522,115.063715 C214.648861,109.361565 214.275477,103.550227 215.675424,97.9621394 C215.700771,97.9358173 215.75049,97.8831731 215.775838,97.8578259 L215.75049,97.7866587 C215.858704,97.0847356 216.125824,96.4091346 216.343225,95.7325588 C216.815074,94.4271768 217.327868,93.1188702 218.130205,91.9753205 C218.132154,91.9723958 218.135079,91.9675214 218.137029,91.9645967 C218.225744,91.8349359 218.318359,91.7072249 218.413899,91.5804888 C218.415848,91.578539 218.419748,91.5726896 218.422673,91.5707399 C219.5399,90.0889022 221.062683,88.8839343 222.835039,88.2941239 C224.725357,87.6165732 226.791156,87.9061165 228.701946,88.3399439 C228.749716,88.357492 228.843306,88.393563 228.8901,88.412086 C228.940795,88.4179354 229.041209,88.4296341 229.091903,88.4354834 C229.137723,88.4569311 229.230338,88.4978766 229.276158,88.5183494 C229.890341,88.6236378 230.472352,88.8858841 231.062162,89.0896368 C233.149409,89.8822249 235.143065,90.9234108 237.292705,91.5483173 C239.046537,92.016266 240.911508,91.9168269 242.646818,91.4196314 C241.173754,92.3097089 239.926866,93.5331998 238.854484,94.8707532 C237.611495,96.578766 236.589807,98.4661592 235.978549,100.492962 C235.960026,100.540732 235.92298,100.634322 235.904457,100.681116 C235.719227,101.614089 235.5067,102.554861 235.498901,103.514156 C235.448207,104.277497 235.60224,105.030115 235.728976,105.776883 L235.701679,105.847075 C235.726051,105.874372 235.774796,105.927991 235.799168,105.954314 C236.265167,107.662326 237.171818,109.204607 238.134037,110.673771 C239.772833,113.162674 241.508143,115.588208 243.053348,118.137553 C244.810106,121.016413 246.371885,124.038582 247.406246,127.257679 C247.579777,127.859188 247.808877,128.453873 247.903442,129.073905 C247.92294,129.1207 247.960961,129.21429 247.979484,129.261084 C249.003121,133.35856 248.581967,137.671488 247.587576,141.731918 C247.568079,141.777738 247.531033,141.870353 247.511535,141.917147 C247.507635,141.970767 247.500811,142.078005 247.496911,142.131624 C247.470589,142.156971 247.41697,142.207666 247.389673,142.233013 L247.41502,142.303205 C247.151799,143.632959 246.667277,144.915919 246.267571,146.212527 C245.698234,147.947837 245.068453,149.674372 244.193973,151.283921 C242.783303,153.84984 240.883236,156.121341 238.742371,158.110123 C236.662924,160.038462 234.374849,161.730876 232.002934,163.280956 C223.713418,168.67309 214.591342,172.572663 205.617451,176.651616 C202.600157,178.030115 199.703749,179.67281 196.972098,181.555329 C196.969174,181.557278 196.964299,181.560203 196.961375,181.562153 C196.892157,181.609923 196.753722,181.705462 196.684505,181.753232 C196.68158,181.755182 196.676706,181.759081 196.673781,181.760056 C196.218506,182.077871 195.76713,182.399586 195.323554,182.732025 C195.320629,182.733974 195.315755,182.737874 195.31283,182.739824 C195.053509,182.927003 194.800036,183.121007 194.547539,183.31696 C194.544614,183.31891 194.53974,183.321835 194.53779,183.323785 C194.042544,183.700093 193.555098,184.085176 193.076425,184.481958 C193.073501,184.483908 193.068626,184.487807 193.066676,184.489757 C192.872673,184.644765 192.680619,184.802698 192.493439,184.96453 C192.490514,184.96648 192.48564,184.970379 192.48369,184.972329 C190.072779,186.996207 187.822726,189.213114 185.765701,191.597703 C185.763752,191.599653 185.759852,191.604527 185.757902,191.607452 C180.390141,197.822396 176.29169,205.157492 173.96657,213.041453 C173.965595,213.045353 173.963645,213.051202 173.96267,213.054127 C173.944147,213.11262 173.907101,213.230582 173.888578,213.290051 C173.868105,213.335871 173.828135,213.427511 173.808637,213.473331 L173.818386,213.584468 C173.796938,213.629314 173.753068,213.719979 173.73162,213.764824 C173.722846,213.817468 173.707248,213.921782 173.698474,213.974426 C173.678001,214.020246 173.636081,214.112861 173.615608,214.158681 C173.488872,214.884001 173.250023,215.592748 173.105739,216.318069 C173.081367,216.344391 173.031647,216.397035 173.007275,216.423357 L173.033597,216.49355 C172.981927,217.069712 172.795723,217.6332 172.708957,218.208387 C172.373594,219.902751 172.173741,221.618563 171.969988,223.332425 C171.945616,224.02265 171.781834,224.773317 171.238818,225.24809 C170.95415,225.48304 170.602213,225.717989 170.215181,225.66047 C167.539099,225.456717 164.850344,225.288061 162.212283,224.763568 C162.185961,224.740171 162.132341,224.691426 162.105044,224.667054 L162.035827,224.696301 C161.799903,224.708974 161.568853,224.625134 161.342678,224.571514 C161.295883,224.552991 161.201318,224.517895 161.154524,224.499372 C161.102854,224.496448 160.998541,224.489623 160.945896,224.486699 C160.901051,224.465251 160.810386,224.423331 160.765541,224.401883 C160.713872,224.397009 160.610533,224.388235 160.559839,224.38336 C160.514019,224.361912 160.422379,224.319992 160.376559,224.298544 C159.86474,224.232252 159.380218,224.017775 158.887897,223.865692 C157.775544,223.47281 156.694387,222.983413 155.685373,222.372155 C154.931781,221.909081 154.217184,221.292949 153.884745,220.451616 C153.596177,219.692174 153.580579,218.850841 153.715114,218.056303 C153.948113,216.733373 154.580819,215.530355 155.2145,214.361458 C151.898888,214.466747 148.580352,214.083614 145.347606,213.361218 C145.321284,213.336846 145.268639,213.287126 145.242317,213.262754 L145.172125,213.290051 C144.570616,213.227658 143.986655,213.015131 143.39587,212.880596 C141.209184,212.294685 139.057595,211.577163 136.952801,210.74558 C135.869695,210.247409 134.758316,209.77946 133.798047,209.060964 C133.796097,209.059014 133.790247,209.055115 133.788298,209.053165 C133.080525,208.538421 132.416623,207.965184 131.791716,207.352951 C130.671564,206.371234 130.548728,204.640799 131.107341,203.328592 C131.62111,201.950093 132.753936,200.954728 133.834118,200.014931 C134.455125,199.471915 135.146324,199.01664 135.800477,198.519444 C131.211655,196.664223 127.053736,193.877003 123.262376,190.720299 C120.958704,188.819257 118.688177,186.8373 116.830031,184.484882 C116.232422,183.702043 115.731326,182.837313 115.403762,181.907265 C115.302373,181.594324 115.219508,181.209241 115.428135,180.923598 C115.65626,180.642829 116.063765,180.662326 116.388404,180.702297 C118.7145,181.090304 121.069841,181.253112 123.419334,181.422743 C125.624542,181.54168 127.826826,181.896541 130.039833,181.719111 C132.556033,181.496835 135.063458,181.161472 137.553335,180.735443 C138.961081,180.512193 140.354203,180.193403 141.75415,179.948705 C141.802894,179.934081 141.898434,179.902885 141.946204,179.887286 C142.598407,179.761525 143.238912,179.554848 143.89794,179.474907 C143.944735,179.456384 144.038324,179.420313 144.086094,179.402764 C144.67298,179.26433 145.256941,179.0791 145.8526,178.98941 C145.899395,178.970887 145.992985,178.931891 146.03978,178.913368 C146.090474,178.907519 146.190888,178.89582 146.241583,178.889971 C146.287403,178.870473 146.380018,178.830502 146.425838,178.811004 C146.476532,178.805155 146.579871,178.794431 146.630565,178.788582 C146.67736,178.769084 146.769,178.728138 146.81482,178.70864 C146.866489,178.698892 146.967878,178.679394 147.019548,178.669645 C147.067317,178.653072 147.163832,178.6209 147.211602,178.604327 C147.369534,178.549733 147.533316,178.493189 147.703923,178.499038 C147.750717,178.479541 147.844307,178.440545 147.890127,178.422022 C156.013912,176.163194 163.872526,173.01429 171.416249,169.259976 C173.020923,168.439116 174.654844,167.667001 176.190301,166.718429 C178.871257,165.123504 181.58341,163.551976 184.021618,161.594391 C185.171017,160.672142 186.249248,159.661178 187.222192,158.554674 C188.282876,157.335083 189.140782,155.954634 189.890474,154.526416 C181.684799,155.030435 173.397232,154.233948 165.443079,152.152551 C165.395309,152.136952 165.298794,152.105756 165.25005,152.090158 C165.19838,152.082358 165.095042,152.06676 165.044347,152.058961 C164.997552,152.039463 164.905912,151.998518 164.860092,151.978045 C164.809398,151.970246 164.708984,151.953673 164.65829,151.945873 C164.611495,151.926376 164.517905,151.886405 164.47111,151.866907 C164.298554,151.863982 164.131847,151.809388 163.971965,151.757719 C163.926145,151.737246 163.83353,151.695326 163.78771,151.673878 C163.725317,151.665104 163.600531,151.645606 163.539112,151.636832 C163.535213,151.635857 163.528388,151.633908 163.525464,151.632933 C159.340247,150.422115 155.25642,148.861311 151.3354,146.961245 C149.333944,145.980502 147.400731,144.852551 145.595229,143.544244 C145.592304,143.543269 145.58743,143.53937 145.584505,143.53742 C141.666409,140.70633 138.342998,136.883774 136.653509,132.309575 C136.489727,131.81043 136.267451,131.318109 136.195309,130.796541 L136.217731,130.725374 C136.190434,130.701002 136.134865,130.652257 136.107568,130.627885 C136.103669,130.574265 136.09782,130.468977 136.09392,130.416333 C136.075397,130.369538 136.037376,130.276923 136.017878,130.231103 C135.788778,129.53308 135.86287,128.71222 135.385173,128.11461 C132.984011,125.561365 130.658891,122.930128 128.552146,120.126335 C126.430779,117.30402 124.519988,114.308173 123.048875,111.09395 C122.247512,109.357666 121.561188,107.567762 120.99185,105.741787 C120.920683,105.486365 120.80662,105.237767 120.789072,104.971621 C120.767625,104.925801 120.726679,104.833186 120.706206,104.787366 C120.687683,104.727898 120.650637,104.608961 120.631139,104.548518 C120.631139,104.545593 120.62919,104.540718 120.62919,104.537794 C120.620416,104.474426 120.604817,104.349639 120.596043,104.286271 C120.574596,104.241426 120.529751,104.150761 120.507328,104.104941 C120.499529,104.054247 120.483931,103.952858 120.476131,103.902163 C120.460533,103.854394 120.427387,103.757879 120.410814,103.71011 C119.520736,100.336979 119.020616,96.861485 118.896805,93.3752671 C118.774943,89.3041132 119.005018,85.2251603 119.543159,81.1881277 C119.812229,79.1262286 120.153442,77.0750534 120.5317,75.0297276 M231.005619,91.6682292 C231.002694,91.670179 230.996845,91.6731036 230.99392,91.6740785 C230.198407,92.0679354 229.807475,93.0262553 229.979056,93.878312 L229.94006,93.9592281 L229.99173,94.0459936 L230.07752,94.0498932 C230.232528,94.8356571 230.99782,95.5648771 231.835253,95.5122329 C232.298327,95.4303419 232.744828,95.247062 233.148434,95.0043136 C233.569588,94.7459669 233.915675,94.2867922 233.865955,93.7700988 C233.785039,92.8975694 233.2274,92.0718349 232.432862,91.6955262 C231.991236,91.486899 231.449195,91.4518029 231.005619,91.6682292 M264.772993,187.567495 C265.815154,186.758333 267.189753,186.419071 268.493185,186.599426 C269.491476,186.717388 270.490742,187.121968 271.167317,187.888235 C271.958931,188.778312 272.252373,189.998878 272.308917,191.161926 C272.394708,193.122436 271.774676,195.012754 271.376919,196.909896 C271.360346,196.957666 271.326225,197.05223 271.309652,197.1 C271.221911,197.760978 271.018159,198.407332 270.891423,199.06441 C270.866075,199.090732 270.816356,199.142401 270.791009,199.167748 L270.817331,199.238916 C270.742264,199.899893 270.527787,200.550147 270.403001,201.207225 C270.378629,201.234522 270.330859,201.288141 270.306487,201.315438 L270.334759,201.38563 C270.196324,202.270833 269.942852,203.142388 269.761521,204.023691 C268.930912,207.664917 268.111027,211.309068 267.273594,214.948344 C267.256046,214.995139 267.221925,215.089704 267.204377,215.136498 C267.126385,215.795526 266.919708,216.44188 266.790047,217.096034 C266.76665,217.123331 266.71888,217.177925 266.694508,217.205222 L266.723754,217.274439 C266.601893,218.063128 266.378642,218.840118 266.21486,219.623932 C266.199262,219.672676 266.16904,219.769191 266.153442,219.81696 C266.12907,220.04996 266.072526,220.281985 266.014032,220.511084 C265.98966,220.538381 265.94189,220.592001 265.917518,220.618323 L265.94579,220.688515 C265.834652,221.474279 265.597753,222.247369 265.440795,223.030208 C264.398634,227.614156 263.358423,232.199079 262.313338,236.782051 C262.297739,236.830796 262.267518,236.92731 262.251919,236.97508 C262.175878,237.503472 262.02282,238.020166 261.914606,238.543683 C261.890234,238.57098 261.841489,238.623624 261.817117,238.650921 L261.844414,238.721114 C261.841489,238.773758 261.836615,238.878072 261.83369,238.929741 C261.816142,238.976536 261.779096,239.0711 261.760573,239.117895 C261.695255,239.648237 261.532448,240.165905 261.426185,240.690398 C261.401813,240.717695 261.353068,240.771314 261.328696,240.797636 L261.356967,240.867829 C261.215608,241.786178 260.954337,242.691854 260.763258,243.604354 C260.747659,243.652123 260.715488,243.748638 260.699889,243.796408 C260.305058,245.622382 259.894628,247.448357 259.487122,249.272382 C259.461775,249.298705 259.412056,249.350374 259.386708,249.375721 L259.413031,249.446888 C259.37501,249.911912 259.206353,250.364263 259.108864,250.822463 C259.092291,250.870232 259.058169,250.965772 259.041596,251.013542 C259.016249,251.21047 258.965555,251.408373 258.901212,251.599452 C258.882689,251.647222 258.844668,251.740812 258.826145,251.788582 C258.816396,251.85195 258.795923,251.978686 258.785199,252.043029 C258.785199,252.045954 258.78325,252.051803 258.782275,252.054728 C257.843453,255.182185 256.502974,258.190705 254.85248,261.007171 C253.927307,262.567975 252.888071,264.060537 251.732822,265.460483 C249.802534,267.947436 247.769881,270.356397 245.917584,272.903793 C245.915635,272.905743 245.911735,272.911592 245.909785,272.913542 C244.124756,275.355649 242.5854,277.968363 241.149382,280.627871 C238.636107,285.321007 236.571284,290.246167 234.849622,295.280515 C234.345603,296.65219 233.974168,298.06676 233.567638,299.468657 C233.55009,299.516426 233.513044,299.610991 233.495496,299.657786 C233.484772,299.707505 233.463324,299.807919 233.453575,299.857639 C233.433103,299.904434 233.393132,299.997049 233.372659,300.043843 C233.258597,300.656076 233.009999,301.240037 232.824769,301.836672 C229.192317,303.321434 225.486748,304.626816 221.73341,305.773291 C221.553055,305.82496 221.376599,305.894177 221.191369,305.920499 C221.144574,305.938048 221.049035,305.973144 221.00224,305.990692 C219.784598,306.361151 218.558183,306.700414 217.330792,307.031878 C217.12119,307.081597 216.913538,307.163488 216.699061,307.167388 C216.653242,307.188835 216.562576,307.232706 216.516756,307.254153 C216.466062,307.258053 216.363698,307.264877 216.312029,307.268777 C216.266209,307.289249 216.173594,307.330195 216.127774,307.350668 C216.07708,307.358467 215.974716,307.374065 215.924021,307.382839 C215.876252,307.398438 215.780712,307.431584 215.732942,307.448157 C215.276692,307.55442 214.827267,307.702604 214.365167,307.767922 C214.317397,307.784495 214.221858,307.817642 214.174088,307.834215 C213.686642,307.942428 213.20407,308.094511 212.709799,308.158854 C212.662029,308.174452 212.566489,308.204674 212.51872,308.220272 C211.998127,308.336285 211.480458,308.477644 210.954016,308.551736 C210.905271,308.56636 210.808757,308.596581 210.760987,308.611205 C205.469267,309.746955 200.109305,310.560016 194.72107,311.065986 C198.296978,303.828379 201.853388,296.581023 205.425397,289.342441 C205.921618,288.318803 206.487056,287.319538 206.806821,286.221808 C206.825344,286.175013 206.862389,286.081424 206.879938,286.033654 C207.185079,284.027324 207.444401,282.00832 207.579911,279.980542 C207.955245,275.227938 207.942571,270.407091 209.036401,265.741253 C209.054924,265.695433 209.092945,265.602818 209.112443,265.556023 C209.115368,265.504354 209.123167,265.40199 209.126091,265.351295 C209.148514,265.30645 209.193359,265.215785 209.215782,265.17094 C209.320095,264.498264 209.595015,263.857759 209.828989,263.220179 C210.428549,261.738341 211.246484,260.308173 212.448527,259.232866 C213.328856,258.412981 214.316423,257.722756 215.240621,256.957465 C222.114593,250.960897 227.892785,243.8666 234.18767,237.294845 C234.868145,236.607545 235.503776,235.870526 236.253469,235.256343 C237.320977,234.441333 238.515221,233.765732 239.813778,233.400147 C240.995349,233.084282 242.26661,233.003365 243.45208,233.349452 C244.407475,233.606824 245.352146,234.165438 245.812296,235.075013 C246.28122,235.935844 246.36896,236.958507 246.199329,237.913902 C246.033597,238.818603 245.629991,239.655061 245.241009,240.481771 C243.678255,243.757412 241.679724,246.796154 239.744561,249.858293 C237.536428,253.321114 235.440408,256.865825 232.950531,260.139517 C232.948581,260.141466 232.944681,260.146341 232.942731,260.149265 C232.644414,260.527524 232.35877,260.915532 232.074102,261.304514 C232.072152,261.307439 232.068252,261.312313 232.066302,261.315238 C231.514513,262.056157 230.966623,262.799025 230.420683,263.545793 C230.418733,263.547743 230.414833,263.553592 230.412884,263.555542 C229.697312,264.525561 228.986615,265.498504 228.277868,266.473397 C228.275918,266.476322 228.272018,266.481197 228.270068,266.484121 C227.148941,268.022503 226.026839,269.561859 224.924235,271.113889 C228.282742,267.348851 231.54181,263.492174 234.695589,259.553606 C234.697539,259.550681 234.701439,259.545807 234.702414,259.543857 C235.497926,258.487073 236.274916,257.417615 237.035333,256.335483 C237.037283,256.333534 237.040207,256.327684 237.042157,256.325735 C237.089927,256.258467 237.185466,256.123932 237.233236,256.056664 C237.235186,256.052764 237.24006,256.04594 237.24201,256.043015 C237.399943,255.815865 237.556901,255.588715 237.714833,255.361565 C237.716783,255.359615 237.720683,255.353766 237.721658,255.351816 C239.943439,252.148317 242.040434,248.860978 244.112082,245.559014 C245.361895,243.495166 246.736495,241.430342 247.286334,239.046728 C247.535907,237.859308 247.665568,236.595847 247.307782,235.417201 C247.011415,234.408186 246.390408,233.488862 245.533477,232.873705 C250.995803,219.036071 256.472753,205.203312 261.947753,191.369578 C262.514166,189.874092 263.510506,188.547262 264.772993,187.567495 M93.4959632,187.175588 C94.2934258,186.867521 95.1659552,186.793429 96.0150871,186.820726 C97.3935861,186.873371 98.717491,187.503152 99.6816603,188.479995 C100.45865,189.256985 101.073808,190.184108 101.562229,191.165825 C104.074529,197.606944 106.639473,204.029541 109.178095,210.461886 C112.133971,217.930542 115.088872,225.400174 118.035974,232.87273 C117.927761,232.955596 117.819548,233.037487 117.716209,233.128152 C117.714259,233.131076 117.70841,233.134976 117.705485,233.137901 C117.411067,233.388448 117.153696,233.680916 116.934345,234.000681 C116.93337,234.003606 116.92947,234.00848 116.92752,234.011405 C116.388404,234.799119 116.094962,235.74184 116.045242,236.692361 C116.001372,237.548317 116.166129,238.396474 116.299689,239.235857 C116.317237,239.282652 116.353308,239.376242 116.371831,239.423037 C116.828081,241.089129 117.670389,242.612887 118.559492,244.083026 C120.782248,247.736926 123.098594,251.334282 125.513404,254.865345 C125.515354,254.867294 125.519254,254.872169 125.520229,254.875093 C126.982568,256.997436 128.463431,259.111979 130.111975,261.094912 C132.89822,264.528486 135.788778,267.875294 138.696885,271.205529 C137.797058,269.909896 136.862136,268.636685 135.937937,267.3586 C135.936962,267.355676 135.933063,267.350801 135.931113,267.347877 C134.773915,265.752951 133.608917,264.16485 132.437096,262.580649 C132.435146,262.577724 132.430271,262.57285 132.428322,262.569925 C131.783917,261.695446 131.136588,260.822917 130.487309,259.952337 C130.48536,259.949412 130.48146,259.944538 130.47951,259.941613 C128.854363,257.828045 127.443693,255.562393 126.003776,253.322089 C125.030832,251.787607 124.069588,250.246301 123.101519,248.709869 C121.663551,246.451042 120.241182,244.177591 118.98162,241.813475 C118.429831,240.757666 117.929711,239.674559 117.526105,238.554407 C116.864152,236.812273 117.509532,234.650935 119.044013,233.583427 C119.314059,233.415745 119.597753,233.219792 119.920442,233.190545 C119.966262,233.170072 120.057902,233.128152 120.103722,233.107679 C120.777373,232.957545 121.473447,233.079407 122.154897,233.107679 C123.898006,233.250988 125.73373,233.680916 127.051786,234.903432 C134.235774,242.08937 140.549182,250.131263 148.201118,256.849252 C149.217932,257.713982 150.333209,258.4627 151.295429,259.392748 C152.485774,260.529474 153.288111,262.010337 153.864272,263.537994 C153.987109,263.916253 154.168439,264.284762 154.216209,264.683494 C154.236682,264.729314 154.278602,264.820954 154.30005,264.866774 C154.451158,265.44976 154.649061,266.03762 154.700731,266.636205 L154.673434,266.706397 C154.697806,266.732719 154.747526,266.785363 154.771898,266.81266 C155.737042,271.822636 155.656126,276.950574 156.16502,282.013194 C156.327828,283.465785 156.462363,284.93105 156.8065,286.354394 C156.807475,286.358293 156.809425,286.365118 156.8104,286.369017 C157.086294,287.295166 157.556193,288.146247 157.982221,289.010003 C161.60005,296.351923 165.212029,303.695793 168.831807,311.036739 C164.05873,310.565865 159.310026,309.853218 154.610066,308.894899 C154.583744,308.870526 154.531099,308.821782 154.503802,308.797409 L154.43361,308.824706 C153.744361,308.756464 153.061935,308.551736 152.37756,308.419151 C152.329791,308.403552 152.233276,308.372356 152.185506,308.357732 C151.948607,308.33336 151.718533,308.278766 151.491383,308.219298 C151.464086,308.194925 151.409492,308.14813 151.38122,308.124733 L151.312002,308.15398 C150.943493,308.122783 150.585707,308.004821 150.227921,307.920005 C150.181126,307.902457 150.086561,307.866386 150.039767,307.848838 C149.989072,307.845913 149.887683,307.838114 149.837964,307.83519 C149.791169,307.814717 149.699529,307.774746 149.652734,307.754274 C149.601065,307.751349 149.495776,307.745499 149.444107,307.742575 C149.398287,307.722102 149.306647,307.680182 149.260827,307.658734 C149.210133,307.656784 149.106794,307.650935 149.055125,307.648985 C149.010279,307.627537 148.919614,307.586592 148.874769,307.565144 C148.822125,307.56027 148.716837,307.550521 148.664192,307.545646 C148.618372,307.526149 148.527707,307.486178 148.482862,307.46668 C148.430218,307.460831 148.326879,307.451082 148.274235,307.445232 C148.228415,307.425735 148.1358,307.384789 148.08998,307.365291 C148.037336,307.361392 147.932048,307.353592 147.879403,307.349693 C147.854056,307.323371 147.803362,307.269752 147.778014,307.242455 L147.707822,307.267802 C147.138485,307.190785 146.58962,306.985083 146.031006,306.852497 C146.005659,306.82715 145.954964,306.776456 145.929617,306.750134 L145.857475,306.774506 C145.002494,306.611699 144.169935,306.312407 143.327627,306.085256 C139.022499,304.809121 134.771965,303.335083 130.623794,301.614396 C130.445389,301.03726 130.266009,300.44355 130.156821,299.848865 C130.136348,299.803045 130.095402,299.711405 130.073955,299.665585 C130.068105,299.612941 130.055432,299.508627 130.049582,299.455983 C130.02521,299.413088 129.97549,299.326322 129.951118,299.283427 L129.961842,299.170339 C129.942344,299.122569 129.904323,299.02898 129.8858,298.982185 C129.874102,298.932465 129.851679,298.834001 129.83998,298.784282 C129.822432,298.737487 129.786361,298.642922 129.767838,298.596127 C128.674008,294.912981 127.358877,291.296127 125.839019,287.767014 C123.13369,281.503325 119.860974,275.424866 115.530498,270.124372 C113.105939,266.947196 110.369414,263.978646 108.40208,260.477804 C106.874422,257.686685 105.535894,254.771755 104.679938,251.699866 C104.592197,251.307959 104.426465,250.925801 104.409892,250.526095 C104.392344,250.4793 104.357248,250.384736 104.3397,250.337941 C104.079403,249.231437 103.834705,248.121034 103.581233,247.013555 C103.535413,246.750334 103.4233,246.495887 103.434999,246.230716 L103.461321,246.160524 C103.436949,246.134201 103.387229,246.082532 103.362857,246.05621 C103.303388,245.826135 103.244895,245.592161 103.222472,245.358186 C103.207849,245.310417 103.176652,245.213902 103.161054,245.166132 C103.002146,244.383293 102.766222,243.609228 102.659959,242.821514 C102.641436,242.77472 102.605365,242.68113 102.587817,242.634335 C102.478629,242.110817 102.314847,241.593149 102.257328,241.064757 C102.23588,241.018937 102.194935,240.928272 102.173487,240.882452 C102.173487,240.831757 102.172512,240.729394 102.172512,240.678699 C102.153989,240.630929 102.118893,240.53734 102.101345,240.48957 C102.039927,240.261445 101.971684,240.03332 101.965835,239.799346 C101.949262,239.751576 101.916115,239.656036 101.899542,239.608267 C101.837149,239.384041 101.78353,239.153966 101.760133,238.924866 C101.744534,238.876122 101.713338,238.780582 101.698714,238.731838 C101.622673,238.373077 101.50861,238.020166 101.476439,237.65653 C101.46084,237.608761 101.428669,237.513221 101.413071,237.465451 C101.348728,237.240251 101.296083,237.010176 101.271711,236.780101 C101.256113,236.732332 101.226866,236.635817 101.212243,236.587073 C101.070883,235.935844 100.892478,235.290465 100.786214,234.634362 C100.770616,234.586592 100.738445,234.491052 100.721871,234.443283 C100.64583,234.083547 100.537617,233.729661 100.496671,233.366026 C100.481073,233.318256 100.450851,233.221741 100.435253,233.172997 C100.148634,231.936832 99.8766389,230.697743 99.5870957,229.462553 C99.5627234,229.332893 99.5130038,229.200307 99.5276272,229.071621 L99.5558991,229.000454 C99.5315268,228.974132 99.4827821,228.920513 99.4584098,228.894191 C99.228335,227.842281 98.9758377,226.795246 98.7496625,225.744311 L98.7564867,225.659495 L98.7837837,225.589303 C98.7584365,225.562981 98.7087169,225.510337 98.6843446,225.484014 C98.4864413,224.535443 98.2251699,223.596621 98.0623628,222.643176 C98.0467645,222.595406 98.014593,222.499866 97.9980198,222.452097 C97.7260246,221.215932 97.4091844,219.985617 97.1732602,218.744578 C97.156687,218.696808 97.1235407,218.601269 97.1069675,218.553499 C96.5990481,216.293697 96.0813799,214.034869 95.569561,211.776042 C95.4077287,210.974679 95.1669301,210.185016 95.0528676,209.378779 L95.0811395,209.309562 C95.057742,209.282265 95.0099723,209.227671 94.9865748,209.200374 C94.930031,208.970299 94.8500898,208.741199 94.8549643,208.505275 C94.8383911,208.45848 94.8032949,208.363916 94.7857469,208.317121 C94.4143126,206.657853 94.0097319,205.004434 93.671444,203.340291 C93.6558457,203.291546 93.6265989,203.195032 93.6119755,203.146287 C93.4784151,202.494084 93.2756373,201.84773 93.1947212,201.189677 L93.2220182,201.119485 C93.1976459,201.093162 93.1479263,201.040518 93.123554,201.014196 C92.9948681,200.356143 92.7940401,199.707839 92.7033751,199.045887 L92.7326219,198.976669 C92.7092244,198.949372 92.6624295,198.894778 92.6380572,198.867481 C92.3407148,197.559175 92.0462971,196.249893 91.7489547,194.942561 C91.5569007,194.048584 91.298554,193.161432 91.2615081,192.243082 C91.2127634,191.130729 91.3083029,189.98523 91.7528542,188.952818 C92.0813932,188.169004 92.7004504,187.494378 93.4959632,187.175588 M114.289459,190.996194 C114.631647,190.807065 115.046951,190.778793 115.420336,190.888956 C115.465181,190.912353 115.554871,190.958173 115.599716,190.981571 C116.011121,191.084909 116.340635,191.408574 116.626278,191.713715 C117.777627,193.08149 118.295295,194.857746 118.515621,196.603779 C118.84806,199.164824 118.742771,201.759014 118.511722,204.323958 C118.201706,207.708787 117.560226,211.051696 116.834906,214.369257 C117.694761,212.833801 118.526345,211.212553 119.905819,210.069004 C120.881687,209.268616 122.372299,209.411926 123.348167,210.140171 C123.752747,210.451162 124.148554,210.858667 124.27724,211.361712 C124.299662,211.406557 124.345482,211.497222 124.367905,211.542067 C124.556059,212.20402 124.441997,212.901068 124.404951,213.577644 C124.285039,214.866453 124.023768,216.138689 123.68548,217.387527 C123.665982,217.433347 123.626986,217.525962 123.607488,217.571782 C123.600664,217.622476 123.588965,217.723865 123.582141,217.774559 C123.561668,217.820379 123.520723,217.912019 123.499275,217.957839 L123.510974,218.072877 C123.485627,218.116747 123.436882,218.204487 123.411535,218.248357 C123.232154,219.152083 122.876318,220.018763 122.616022,220.905916 C121.966743,223.133547 121.144908,225.306584 120.474182,227.528365 C120.451759,227.57321 120.408864,227.663876 120.387416,227.709696 C120.378642,227.773064 120.360119,227.898825 120.35037,227.962193 C120.35037,227.965118 120.34842,227.970967 120.347446,227.974866 C119.946764,229.328993 119.470042,230.662647 118.890955,231.952431 C117.609946,228.687513 116.453722,225.374826 115.316997,222.05824 C115.274102,221.813542 115.024529,221.696554 114.955311,221.468429 C113.471524,217.494765 111.984812,213.5211 110.501025,209.547436 C109.874168,207.839423 109.207341,206.145059 108.604857,204.430222 C108.755966,203.508948 108.981166,202.601322 109.199542,201.694671 C109.21709,201.646902 109.251212,201.552337 109.267785,201.504567 C109.274609,201.452898 109.289232,201.349559 109.297032,201.29789 C109.318479,201.25207 109.3604,201.161405 109.381847,201.11656 C109.385747,201.06489 109.393546,200.962527 109.397446,200.911832 C109.419868,200.866012 109.462763,200.775347 109.485186,200.730502 C109.480311,200.555021 109.53978,200.388315 109.5895,200.225507 C109.615822,200.20016 109.667491,200.148491 109.693813,200.123144 L109.669441,200.051976 C110.006754,198.657879 110.518573,197.300828 111.029417,195.959375 C111.446671,194.885043 111.920469,193.829233 112.512229,192.839717 C112.956781,192.105622 113.525143,191.413448 114.289459,190.996194 M247.842998,190.996194 C248.460106,190.718349 249.24002,190.813889 249.741115,191.281838 C251.154711,192.497529 251.851759,194.280609 252.550758,195.9584 C253.063551,197.299853 253.512977,198.665678 253.918533,200.044177 C253.9897,200.334696 254.119361,200.617415 254.137884,200.920606 C254.157381,200.967401 254.196377,201.060991 254.215875,201.107786 C254.222699,201.161405 254.236348,201.268643 254.243172,201.322262 L254.22075,201.393429 C254.248047,201.417802 254.303615,201.466546 254.330912,201.491894 C254.335787,201.544538 254.346511,201.649826 254.351385,201.702471 C254.368933,201.75024 254.404029,201.84383 254.421578,201.8916 C254.471297,202.081704 254.543439,202.278632 254.536615,202.48141 C254.554163,202.528205 254.590234,202.62277 254.607782,202.669565 C254.668225,202.89379 254.729644,203.121915 254.744267,203.356864 C254.759865,203.405609 254.789112,203.501149 254.804711,203.549893 C254.864179,203.885256 255.023087,204.244017 254.881727,204.57938 C253.39209,208.514049 251.906353,212.449693 250.418666,216.384362 C249.70017,218.242508 249.035293,220.122102 248.2856,221.9666 C247.076732,225.236392 245.853242,228.502284 244.594654,231.752577 C243.439406,229.17106 242.833997,226.39164 241.857154,223.74383 C241.452574,222.459896 241.040194,221.177911 240.624889,219.896902 C240.491329,219.411405 240.280752,218.940532 240.207635,218.445286 C240.184238,218.401416 240.137443,218.313675 240.114045,218.269805 L240.121845,218.150868 C240.101372,218.105048 240.060426,218.012433 240.039954,217.966613 C240.03118,217.915919 240.014606,217.81648 240.006807,217.765785 C239.988284,217.71899 239.951238,217.625401 239.932715,217.578606 C239.587603,216.30442 239.308784,215.007813 239.180098,213.692682 C239.132328,213.040478 239.044588,212.378526 239.149876,211.728272 C239.171324,211.682452 239.215194,211.591787 239.236642,211.545967 C239.259064,211.226202 239.461842,210.951282 239.643172,210.698785 C240.355819,209.78336 241.615381,209.335884 242.745282,209.603005 C242.790127,209.626402 242.879817,209.671247 242.923688,209.694645 C243.222005,209.709268 243.466703,209.921795 243.696778,210.098251 C244.95049,211.131637 245.724556,212.591052 246.527868,213.972476 C246.581487,214.071915 246.64193,214.168429 246.704323,214.270793 C246.679951,214.045593 246.652654,213.822342 246.582462,213.610791 L246.574662,213.580569 C245.659238,209.384629 244.935867,205.120446 244.854951,200.817268 C244.825704,198.920126 244.893947,197.00641 245.318025,195.150214 C245.59782,193.940371 246.071618,192.746127 246.891503,191.796581 C247.165448,191.48559 247.449142,191.157051 247.842998,190.996194" id="yello-elements" fill="#F9D716"></path>
                </g>
            </g>
        </g>
    </g>
</svg>