<?xml version="1.0" standalone="no"?>
<!DOCTYPE svg PUBLIC "-//W3C//DTD SVG 1.1//EN" "http://www.w3.org/Graphics/SVG/1.1/DTD/svg11.dtd">
<svg width="100%" height="100%" viewBox="0 0 294 294" version="1.1" xmlns="http://www.w3.org/2000/svg" xmlns:xlink="http://www.w3.org/1999/xlink" xml:space="preserve" style="fill-rule:evenodd;clip-rule:evenodd;stroke-linecap:round;stroke-linejoin:round;stroke-miterlimit:1.41421;">
    <g transform="matrix(1.28899,0,0,1.28899,-44.2178,-35.188)">
        <g id="Layer2">
            <g transform="matrix(1,0,0,1,-14.9219,-19.3976)">
                <path d="M277.46,159.749L277.488,160.866C277.488,223.867 226.339,275.017 163.338,275.017C100.336,275.017 49.187,223.867 49.187,160.866L49.216,159.749L277.46,159.749Z" style="fill:black;stroke-width:0.78px;stroke:black;"/>
            </g>
        </g>
        <g transform="matrix(0.68968,1.9047e-32,1.9047e-32,0.68968,13.0184,10.7019)">
            <g id="Layer4">
                <path d="M30.848,187.985C31.689,97.378 105.513,24.092 196.319,24.092C287.126,24.092 360.95,97.378 361.791,187.985C361.791,187.985 309.197,241.652 206.819,243.434C104.441,245.216 30.848,187.985 30.848,187.985Z" style="fill:rgb(195,47,39);"/>
            </g>
        </g>
    </g>
    <g id="hands" transform="matrix(1.35323,0,0,1.35323,-55.4008,-54.1161)">
        <g id="Layer3">
            <g transform="matrix(1.0176,0,0,1.0176,4.50941,-6.31503)">
                <path d="M155.32,237.912L165.084,221.763C165.6,220.897 166.175,220.057 166.541,219.112C166.561,219.072 166.601,218.992 166.62,218.951C167.042,217.203 167.425,215.439 167.699,213.658C168.392,209.489 168.748,205.23 170.069,201.193C170.089,201.154 170.13,201.075 170.15,201.035C170.157,200.989 170.172,200.9 170.178,200.855C170.201,200.817 170.248,200.741 170.271,200.703C170.414,200.116 170.706,199.572 170.961,199.026C171.603,197.763 172.435,196.562 173.578,195.704C174.418,195.047 175.343,194.512 176.217,193.907C182.745,189.134 188.389,183.307 194.449,177.982C195.102,177.427 195.719,176.824 196.428,176.339C197.433,175.7 198.539,175.194 199.714,174.97C200.782,174.781 201.911,174.807 202.931,175.202C203.756,175.502 204.548,176.068 204.885,176.906C205.233,177.702 205.233,178.612 205.01,179.443C204.795,180.229 204.375,180.938 203.969,181.638C202.339,184.412 200.343,186.944 198.4,189.501C196.187,192.392 194.065,195.363 191.617,198.065C191.615,198.067 191.612,198.071 191.61,198.073C191.317,198.384 191.035,198.705 190.754,199.027C190.752,199.03 190.749,199.034 190.747,199.036C190.203,199.649 189.663,200.263 189.124,200.881C189.122,200.883 189.118,200.888 189.116,200.889C188.41,201.691 187.708,202.497 187.008,203.304C187.006,203.306 187.002,203.31 187,203.313C185.893,204.586 184.785,205.86 183.693,207.147C186.946,204.077 190.118,200.919 193.203,197.68C193.205,197.678 193.209,197.674 193.21,197.672C193.993,196.799 194.761,195.914 195.515,195.016C195.516,195.015 195.519,195.01 195.521,195.008C195.569,194.952 195.663,194.841 195.711,194.785C195.713,194.782 195.717,194.776 195.719,194.774C195.876,194.585 196.032,194.396 196.189,194.208C196.191,194.206 196.195,194.201 196.196,194.2C198.402,191.539 200.504,188.795 202.585,186.037C203.846,184.309 205.217,182.59 205.884,180.526C206.195,179.497 206.406,178.39 206.18,177.322C205.995,176.408 205.516,175.549 204.806,174.941C210.684,163.135 216.574,151.334 222.462,139.532C223.076,138.254 224.057,137.158 225.247,136.389C226.229,135.754 227.469,135.559 228.607,135.817C229.479,135.997 230.331,136.431 230.87,137.159C231.502,138.005 231.668,139.106 231.63,140.137C231.556,141.875 230.865,143.498 230.369,145.143C230.351,145.184 230.313,145.265 230.295,145.306C230.167,145.883 229.938,146.438 229.776,147.009C229.752,147.03 229.704,147.072 229.68,147.093L229.697,147.158C229.581,147.736 229.342,148.294 229.182,148.865C229.158,148.887 229.112,148.93 229.088,148.953L229.108,149.017C228.918,149.788 228.628,150.539 228.401,151.303C227.39,154.456 226.388,157.612 225.372,160.763C225.353,160.803 225.315,160.884 225.296,160.924C225.177,161.5 224.946,162.055 224.781,162.623C224.759,162.645 224.712,162.69 224.689,162.712L224.709,162.776C224.542,163.463 224.285,164.132 224.081,164.812C224.063,164.854 224.029,164.937 224.012,164.978C223.973,165.182 223.905,165.382 223.836,165.58C223.812,165.603 223.766,165.646 223.743,165.668L223.762,165.732C223.604,166.417 223.336,167.082 223.138,167.762C221.869,171.731 220.601,175.701 219.329,179.67C219.312,179.712 219.278,179.795 219.26,179.836C219.153,180.296 218.978,180.741 218.843,181.195C218.819,181.218 218.772,181.26 218.749,181.283L218.767,181.347C218.761,181.393 218.748,181.485 218.742,181.53C218.723,181.57 218.683,181.651 218.663,181.691C218.565,182.154 218.382,182.599 218.248,183.054C218.224,183.076 218.177,183.12 218.154,183.141L218.173,183.206C217.979,184.006 217.679,184.786 217.441,185.577C217.423,185.618 217.388,185.701 217.37,185.742C216.882,187.325 216.381,188.906 215.882,190.486C215.858,190.508 215.81,190.55 215.786,190.57L215.804,190.635C215.735,191.043 215.551,191.429 215.43,191.827C215.412,191.868 215.375,191.949 215.356,191.99C215.319,192.162 215.259,192.333 215.188,192.497C215.168,192.538 215.127,192.618 215.107,192.659C215.094,192.714 215.066,192.824 215.051,192.88C215.051,192.883 215.049,192.888 215.048,192.89C213.981,195.581 212.568,198.136 210.896,200.498C209.96,201.806 208.928,203.046 207.801,204.194C205.907,206.244 203.929,208.217 202.099,210.326C202.097,210.327 202.093,210.332 202.091,210.334C200.329,212.355 198.77,214.545 197.299,216.785C196.011,218.762 194.817,220.799 193.705,222.886C182.409,230.52 169.378,235.769 155.32,237.912Z" style="fill:rgb(249,215,22);"/>
            </g>
            <g transform="matrix(1.0176,0,0,1.0176,4.50941,-6.31503)">
                <path d="M210.033,138.129C210.599,137.93 211.281,138.074 211.688,138.526C212.844,139.707 213.324,141.335 213.813,142.87C214.164,144.094 214.457,145.334 214.711,146.583C214.751,146.845 214.844,147.104 214.838,147.373C214.851,147.416 214.879,147.502 214.892,147.545C214.894,147.593 214.898,147.688 214.9,147.736L214.875,147.797C214.897,147.821 214.942,147.868 214.965,147.893C214.965,147.94 214.966,148.033 214.967,148.08C214.978,148.124 215.002,148.209 215.014,148.253C215.044,148.424 215.092,148.604 215.071,148.782C215.083,148.825 215.108,148.911 215.119,148.954C215.156,149.157 215.193,149.363 215.188,149.571C215.198,149.616 215.216,149.702 215.226,149.746C215.253,150.047 215.366,150.376 215.216,150.662C213.601,154.023 211.989,157.387 210.376,160.749C209.6,162.335 208.869,163.945 208.067,165.517C206.75,168.313 205.421,171.104 204.062,173.879C203.238,171.511 202.915,169.01 202.254,166.597C201.994,165.432 201.728,164.269 201.458,163.106C201.377,162.667 201.227,162.235 201.2,161.792C201.183,161.751 201.148,161.67 201.131,161.63L201.147,161.525C201.132,161.483 201.103,161.398 201.088,161.356C201.085,161.311 201.078,161.222 201.074,161.176C201.062,161.133 201.036,161.048 201.023,161.005C200.815,159.854 200.668,158.687 200.654,157.516C200.662,156.936 200.635,156.345 200.777,155.778C200.8,155.74 200.845,155.663 200.868,155.624C200.912,155.343 201.112,155.116 201.291,154.907C201.99,154.152 203.137,153.853 204.114,154.175C204.152,154.199 204.228,154.246 204.265,154.27C204.527,154.305 204.727,154.511 204.917,154.685C205.946,155.693 206.518,157.041 207.123,158.322C207.163,158.414 207.209,158.504 207.256,158.599C207.252,158.398 207.244,158.199 207.199,158.007L207.194,157.98C206.705,154.204 206.39,150.383 206.646,146.576C206.765,144.898 206.971,143.213 207.487,141.606C207.826,140.558 208.335,139.54 209.132,138.763C209.397,138.51 209.673,138.241 210.033,138.129Z" style="fill:rgb(249,215,22);"/>
            </g>
        </g>
        <g id="Layer21" transform="matrix(-0.90211,0,3.85186e-34,0.988483,265.871,3.27172)">
            <g transform="matrix(0.993643,0.102742,-0.123358,0.993643,-17.7538,-90.9339)">
                <path d="M256.196,205.913L245.533,232.874C246.39,233.489 247.011,234.408 247.308,235.417C247.666,236.596 247.536,237.859 247.286,239.047C246.736,241.43 245.362,243.495 244.112,245.559C242.04,248.861 239.943,252.148 237.722,255.352C237.721,255.354 237.717,255.36 237.715,255.362C237.557,255.589 237.4,255.816 237.242,256.043C237.24,256.046 237.235,256.053 237.233,256.057C237.185,256.124 237.09,256.258 237.042,256.326C237.04,256.328 237.037,256.334 237.035,256.335C236.275,257.418 235.498,258.487 234.702,259.544C234.701,259.546 234.698,259.551 234.696,259.554C231.542,263.492 228.283,267.349 224.924,271.114C226.027,269.562 227.149,268.023 228.27,266.484C228.272,266.481 228.276,266.476 228.278,266.473C228.987,265.499 229.697,264.526 230.413,263.556C230.415,263.554 230.419,263.548 230.421,263.546C230.967,262.799 231.515,262.056 232.066,261.315C232.068,261.312 232.072,261.307 232.074,261.305C232.359,260.916 232.644,260.528 232.943,260.149C232.945,260.146 232.949,260.141 232.951,260.14C235.44,256.866 237.536,253.321 239.745,249.858C241.68,246.796 243.678,243.757 245.241,240.482C245.63,239.655 246.034,238.819 246.199,237.914C246.369,236.959 246.281,235.936 245.812,235.075C245.352,234.165 244.407,233.607 243.452,233.349C242.267,233.003 240.995,233.084 239.814,233.4C238.515,233.766 237.321,234.441 236.253,235.256C235.504,235.871 234.868,236.608 234.188,237.295C227.893,243.867 222.115,250.961 215.241,256.957C214.316,257.723 213.329,258.413 212.449,259.233C211.246,260.308 210.429,261.738 209.829,263.22C209.595,263.858 209.32,264.498 209.216,265.171C209.193,265.216 209.149,265.306 209.126,265.351C209.123,265.402 209.115,265.504 209.112,265.556C209.093,265.603 209.055,265.695 209.036,265.741C207.943,270.407 207.955,275.228 207.58,279.981C207.444,282.008 207.185,284.027 206.88,286.034C206.862,286.081 206.825,286.175 206.807,286.222C206.487,287.32 205.922,288.319 205.425,289.342L195.838,308.799C210.386,306.282 223.762,301.104 235.381,293.893C236.958,289.335 238.869,284.886 241.149,280.628C242.585,277.968 244.125,275.356 245.91,272.914C245.912,272.912 245.916,272.906 245.918,272.904C247.77,270.356 249.803,267.947 251.733,265.46C252.888,264.061 253.927,262.568 254.852,261.007C256.503,258.191 257.843,255.182 258.782,252.055C258.783,252.052 258.785,252.046 258.785,252.043C258.796,251.979 258.816,251.852 258.826,251.789C258.845,251.741 258.883,251.647 258.901,251.599C258.966,251.408 259.016,251.21 259.042,251.014C259.058,250.966 259.092,250.87 259.109,250.822C259.206,250.364 259.375,249.912 259.413,249.447L259.387,249.376C259.412,249.35 259.462,249.299 259.487,249.272C259.895,247.448 260.305,245.622 260.7,243.796C260.715,243.749 260.748,243.652 260.763,243.604C260.954,242.692 261.216,241.786 261.357,240.868L261.329,240.798C261.353,240.771 261.402,240.718 261.426,240.69C261.532,240.166 261.695,239.648 261.761,239.118C261.779,239.071 261.816,238.977 261.834,238.93C261.837,238.878 261.841,238.774 261.844,238.721L261.817,238.651C261.841,238.624 261.89,238.571 261.915,238.544C262.023,238.02 262.176,237.503 262.252,236.975C262.268,236.927 262.298,236.831 262.313,236.782C263.358,232.199 264.399,227.614 265.441,223.03C265.598,222.247 265.835,221.474 265.946,220.689L265.918,220.618C265.942,220.592 265.99,220.538 266.014,220.511C266.073,220.282 266.129,220.05 266.153,219.817C266.169,219.769 266.199,219.673 266.215,219.624C266.379,218.84 266.602,218.063 266.724,217.274L266.695,217.205C266.719,217.178 266.767,217.123 266.79,217.096C266.92,216.442 267.126,215.796 267.204,215.136C267.222,215.09 267.256,214.995 267.274,214.948C268.111,211.309 268.931,207.665 269.762,204.024C269.943,203.142 270.196,202.271 270.335,201.386L270.306,201.315C270.331,201.288 270.379,201.235 270.403,201.207C270.528,200.55 270.742,199.9 270.817,199.239L270.791,199.168C270.816,199.142 270.866,199.091 270.891,199.064C271.018,198.407 271.222,197.761 271.31,197.1C271.326,197.052 271.36,196.958 271.377,196.91C271.775,195.013 272.395,193.122 272.309,191.162C272.252,189.999 271.959,188.778 271.167,187.888C270.491,187.122 269.491,186.717 268.493,186.599C267.19,186.419 265.815,186.758 264.773,187.567C263.511,188.547 262.514,189.874 261.948,191.37L257.2,203.375L262.791,202.688C260.687,203.847 257.758,204.853 256.196,205.913Z" style="fill:rgb(249,215,22);"/>
            </g>
            <g transform="matrix(0.993643,0.102742,-0.123358,0.993643,-17.7538,-90.9339)">
                <path d="M254.623,206.6L245.869,210.094L246.575,213.581L246.582,213.611C246.653,213.822 246.68,214.046 246.704,214.271C246.642,214.168 246.581,214.072 246.528,213.972C245.725,212.591 244.125,210.549 244.125,210.549L239.084,212.693C239.084,212.693 239.134,213.069 239.18,213.693C239.309,215.008 239.588,216.304 239.933,217.579C239.951,217.625 239.988,217.719 240.007,217.766C240.015,217.816 240.031,217.916 240.04,217.967C240.06,218.012 240.101,218.105 240.122,218.151L240.114,218.27C240.137,218.314 240.184,218.401 240.208,218.445C240.281,218.941 240.491,219.411 240.625,219.897C241.04,221.178 241.453,222.46 241.857,223.744C242.834,226.392 243.439,229.171 244.595,231.753C245.853,228.502 247.077,225.236 248.286,221.967C249.035,220.122 249.7,218.243 250.419,216.384L254.623,206.6Z" style="fill:rgb(249,215,22);"/>
            </g>
            <g transform="matrix(0.993643,0.102742,-0.123358,0.993643,-17.7538,-90.9339)">
                <path d="M254.832,203.712C254.832,203.712 253.064,197.3 252.551,195.958C251.852,194.281 251.155,192.498 249.741,191.282C249.24,190.814 248.46,190.718 247.843,190.996C247.449,191.157 247.165,191.486 246.892,191.797C246.072,192.746 245.598,193.94 245.318,195.15C244.894,197.006 244.826,198.92 244.855,200.817C244.894,202.876 244.938,203.8 245.226,205.816L254.832,203.712Z" style="fill:rgb(249,215,22);"/>
            </g>
        </g>
        <g id="Layer22">
            <g id="Layer1">
                <g transform="matrix(1,0,0,1,-0.957482,0.124889)">
                    <path d="M195.133,90.429C195.133,90.429 199.033,87.857 202.013,84.525C205.127,81.045 207.57,75.311 207.57,75.311C207.57,75.311 206.802,99.313 201.591,112.508C202.527,106.304 200.92,98.985 195.133,90.429Z" style="fill:rgb(249,215,22);"/>
                </g>
                <g transform="matrix(1,0,0,1,1.21852,7.27173)">
                    <path d="M73.201,132.806L79.29,133.713L83.756,134.291L83.993,134.322C164.56,144.632 151.779,117.805 151.779,117.805C151.779,117.805 115.044,116.007 111.091,93.193C110.819,91.624 89.723,85.843 95.836,53.704C96.056,52.546 102.869,65.685 117.995,70.381C123.638,72.132 137.522,67.48 172.012,85.96C172.616,86.283 167.631,55.669 186.928,65.799C189.307,67.048 191.949,66.504 193.522,65.96L194.691,65.482C190.884,67.588 186.471,76.38 188.944,79.478C190.109,80.936 191.156,82.361 192.082,83.782L192.15,83.882C197.866,92.393 199.468,99.675 198.54,105.861L198.532,105.917C195.697,125.009 169.349,134.681 166.393,135.878C150.166,142.454 138.463,157.73 137.145,171.014L137.022,173.641C136.904,170.656 135.44,155.271 118.148,148.452C108.548,144.666 98.363,141.171 89.876,138.452L85.744,137.082L85.734,137.078L83.657,136.437L75.422,133.895L73.433,133.281L73.433,133.282L70.677,132.43L73.2,132.804L73.201,132.806ZM181.406,65.843C182.034,65.843 182.544,66.378 182.544,67.036C182.544,67.695 182.034,68.229 181.406,68.229C180.778,68.229 180.268,67.695 180.268,67.036C180.268,66.378 180.778,65.843 181.406,65.843Z" style="fill:rgb(249,215,22);"/>
                </g>
            </g>
        </g>
    </g>
</svg>
