<?xml version="1.0" encoding="UTF-8" ?>
<!DOCTYPE svg PUBLIC "-//W3C//DTD SVG 1.1//EN" "http://www.w3.org/Graphics/SVG/1.1/DTD/svg11.dtd">
<svg width="225pt" height="225pt" viewBox="0 0 225 225" version="1.1" xmlns="http://www.w3.org/2000/svg">
<path fill="#fafafa" d=" M 0.00 0.00 L 225.00 0.00 L 225.00 225.00 L 0.00 225.00 L 0.00 0.00 Z" />
<path fill="#232323" d=" M 93.17 40.24 C 98.47 31.07 107.67 25.20 116.83 20.44 C 111.54 30.08 110.93 42.17 115.85 52.09 C 121.25 64.17 131.76 72.66 141.52 81.10 C 125.40 73.42 108.27 66.02 90.11 65.96 C 88.00 57.41 88.40 47.85 93.17 40.24 Z" />
<path fill="#232323" d=" M 47.60 45.58 C 54.37 53.74 61.40 62.49 71.71 66.25 C 80.67 70.16 90.63 68.93 100.07 70.40 C 116.34 73.29 131.67 79.96 146.09 87.86 C 145.89 80.42 145.44 72.54 148.70 65.63 C 150.40 61.82 154.42 58.85 158.72 59.61 C 164.28 60.00 168.71 64.17 174.36 64.15 C 171.27 67.76 168.22 72.00 168.38 76.99 C 168.67 80.48 170.97 83.31 172.80 86.15 C 176.77 91.86 180.51 97.98 181.83 104.91 C 182.84 111.66 180.81 118.33 178.45 124.58 C 175.71 131.01 170.17 135.68 164.46 139.42 C 155.90 144.91 146.57 149.05 137.31 153.20 C 117.16 162.22 102.47 182.86 101.77 205.07 C 95.74 204.55 89.15 204.54 83.92 201.10 C 81.02 199.12 82.14 195.56 83.56 193.04 C 77.09 193.20 70.71 191.52 64.73 189.18 C 62.00 188.17 59.77 186.26 57.93 184.06 C 57.95 183.36 57.99 181.97 58.01 181.27 C 59.37 179.24 61.12 177.52 63.15 176.16 C 57.29 173.71 52.19 169.80 47.50 165.59 C 44.95 163.17 42.16 160.54 41.63 156.89 C 47.47 156.51 53.13 158.79 59.00 158.00 C 74.93 156.35 90.27 150.71 104.39 143.29 C 110.13 139.79 116.70 136.46 119.84 130.18 C 105.90 131.00 91.74 128.10 79.25 121.87 C 71.54 118.01 64.64 111.40 63.31 102.54 C 57.23 96.04 51.42 88.99 48.55 80.41 C 44.50 69.27 45.37 57.01 47.60 45.58 Z" />
<path fill="#fafafa" d=" M 163.31 64.21 C 165.08 62.99 167.38 66.57 165.11 67.17 C 163.26 68.54 161.59 65.43 163.31 64.21 Z" />
</svg>
