<?xml version="1.0" encoding="UTF-8" standalone="no"?>
<svg width="67px" height="60px" viewBox="0 0 67 60" version="1.1" xmlns="http://www.w3.org/2000/svg" xmlns:xlink="http://www.w3.org/1999/xlink" xmlns:sketch="http://www.bohemiancoding.com/sketch/ns">
    <!-- Generator: Sketch 3.5.2 (25235) - http://www.bohemiancoding.com/sketch -->
    <title>Shape</title>
    <desc>Created with Sketch.</desc>
    <defs></defs>
    <g id="Welcome" stroke="none" stroke-width="1" fill="none" fill-rule="evenodd" sketch:type="MSPage">
        <g id="Tablet-Portrait" sketch:type="MSArtboardGroup" transform="translate(-557.000000, -914.000000)" fill="#000000">
            <g id="Song-row-I" sketch:type="MSLayerGroup" transform="translate(0.000000, 869.000000)">
                <g id="heart" transform="translate(557.000000, 45.000000)" sketch:type="MSShapeGroup">
                    <g id="Capa_1">
                        <g id="Hearts_2_">
                            <path d="M62.2385073,5.97207921 C53.3667697,-2.9049505 44.3309504,-0.686732673 37.8776589,5.97207921 L33.4484315,10.4621782 L29.0192041,5.97207921 C22.5657172,-0.686732673 13.5080204,-3.0350495 4.65835569,5.97207921 C-1.83927697,12.5859406 -1.38766181,23.9235644 5.06582507,30.5780198 L33.4441341,59.8491089 L61.8224431,30.5780198 C68.2800321,23.9235644 68.7894665,12.5275248 62.2385073,5.97207921 L62.2385073,5.97207921 Z M57.8049825,28.4225743 L33.4439388,53.1184158 L9.08309038,28.4225743 C3.29843149,22.4552475 3.29843149,14.1843564 9.08309038,8.2170297 C14.8677493,2.24970297 21.0155364,4.49465347 26.8001953,10.4621782 L33.4441341,17.1974257 L40.0880729,10.4621782 C45.8727318,4.49485149 52.020519,2.24970297 57.8051778,8.2170297 C63.5894461,14.18 63.5894461,22.4552475 57.8049825,28.4225743 L57.8049825,28.4225743 Z" id="Shape"></path>
                        </g>
                    </g>
                </g>
            </g>
        </g>
    </g>
</svg>