<?xml version="1.0" encoding="UTF-8" standalone="no"?>
<svg width="58px" height="61px" viewBox="0 0 58 61" version="1.1" xmlns="http://www.w3.org/2000/svg" xmlns:xlink="http://www.w3.org/1999/xlink" xmlns:sketch="http://www.bohemiancoding.com/sketch/ns">
    <!-- Generator: Sketch 3.5.2 (25235) - http://www.bohemiancoding.com/sketch -->
    <title>Shape</title>
    <desc>Created with Sketch.</desc>
    <defs></defs>
    <g id="Welcome" stroke="none" stroke-width="1" fill="none" fill-rule="evenodd" sketch:type="MSPage">
        <g id="Tablet-Portrait" sketch:type="MSArtboardGroup" transform="translate(-663.000000, -914.000000)" fill="#000000">
            <g id="Song-row-I" sketch:type="MSLayerGroup" transform="translate(0.000000, 869.000000)">
                <path d="M671.581183,46.5080725 C667.484724,44.3095577 663.5,46.6935708 663.5,51.3460223 L663.5,99.6561086 C663.5,104.305582 667.482064,106.694001 671.581178,104.494072 L717.100087,80.0648016 C721.287299,77.8175916 721.290166,73.1862205 717.100092,70.9374635 L671.581183,46.5080725 L671.581183,46.5080725 Z M669.216748,50.9136879 L714.735657,75.3430789 C715.031673,75.5019467 715.213837,75.6499529 715.291892,75.7532157 C715.276291,75.7325774 715.241488,75.6360607 715.241572,75.5004376 C715.241655,75.3651619 715.276322,75.269329 715.291531,75.249231 C715.213236,75.3526933 715.031101,75.5006236 714.735661,75.6591813 L669.216752,100.088452 C668.451366,100.499223 668.5,100.528394 668.5,99.6561086 L668.5,51.3460223 C668.5,50.4737934 668.451342,50.5029049 669.216748,50.9136879 L669.216748,50.9136879 Z" id="Shape" sketch:type="MSShapeGroup"></path>
            </g>
        </g>
    </g>
</svg>